<svg width="68" height="68" viewBox="0 0 68 68" fill="none" xmlns="http://www.w3.org/2000/svg">
<mask id="mask0_2038_6204" style="mask-type:luminance" maskUnits="userSpaceOnUse" x="0" y="0" width="68" height="68">
<path d="M0 0.162109H67.8379V68H0V0.162109Z" fill="white"/>
</mask>
<g mask="url(#mask0_2038_6204)">
<path d="M67.8379 34.0734C67.8379 52.8991 52.5119 67.9924 33.9189 67.9924C15.3135 67.9924 0 52.8879 0 34.0734C0 15.3399 15.1854 0.169434 33.9189 0.169434C52.6525 0.169434 67.8379 15.3399 67.8379 34.0734Z" fill="#F0C9C4"/>
</g>
<mask id="mask1_2038_6204" style="mask-type:luminance" maskUnits="userSpaceOnUse" x="4" y="51" width="60" height="18">
<path d="M4.39844 51.062H63.3187V68.0003H4.39844V51.062Z" fill="white"/>
</mask>
<g mask="url(#mask1_2038_6204)">
<path d="M63.1741 51.2437C57.2846 61.2598 46.3863 67.9879 33.918 67.9879C21.4584 67.9879 10.5651 61.2623 4.67188 51.2437H63.1741Z" fill="#415B6B"/>
</g>
<path d="M10.6484 48.2329H12.0057V48.2478H10.6484V48.2329Z" fill="#85C1BE"/>
<path d="M62.4385 35.9709V36.5507C62.4385 36.6776 62.3328 36.7784 62.2096 36.7784H61.9807V48.4343H9.13289C9.1105 48.112 9.09184 47.7923 9.07815 47.4701C9.05452 47.062 9.04083 46.6552 9.02963 46.2484C9.02217 46.0045 9.01346 45.7582 9.01097 45.5156H9.0147C8.97863 43.5002 9.03337 35.4957 9.1727 33.474C9.1839 33.2725 9.19883 33.066 9.21874 32.8644C9.23366 32.6442 9.25233 32.4278 9.27099 32.2063C9.28592 31.9774 9.30707 31.751 9.3307 31.5221C9.51359 29.5004 9.77485 27.4812 10.0971 25.4658C10.1978 24.8164 10.3048 24.1645 10.4218 23.5151C10.4852 23.1605 10.5499 22.8059 10.6159 22.4489H10.5238C10.3546 22.4489 10.2177 22.312 10.2177 22.1379V21.4847C10.2177 21.3143 10.3558 21.1737 10.5275 21.1737H23.3678C23.5395 21.1737 23.6788 21.313 23.6788 21.4847V22.1379C23.6788 22.3096 23.5407 22.4489 23.3678 22.4489H23.2807C23.3479 22.8035 23.4113 23.1593 23.476 23.5151C23.5121 23.7166 23.547 23.9157 23.5805 24.1122H28.4026V26.945H36.0289V20.0677C36.0289 20.0665 36.0302 20.064 36.0327 20.064H44.2001V22.9602H52.4497V24.1147L53.1937 24.6982L52.4497 25.2817V30.2829H57.5082C57.9897 30.2829 58.3791 30.6736 58.3791 31.1551V35.742H62.2146C62.3365 35.7433 62.4385 35.8465 62.4385 35.9709Z" fill="#4E4E4E" fill-opacity="0.0706"/>
<mask id="mask2_2038_6204" style="mask-type:luminance" maskUnits="userSpaceOnUse" x="55" y="37" width="8" height="10">
<path d="M62.3526 37.2798H55.0273V46.1974H62.3526V37.2798Z" fill="white"/>
</mask>
<g mask="url(#mask2_2038_6204)">
<path d="M55.6602 37.6704H56.8122V38.8237H55.6602V37.6704Z" fill="white"/>
<path d="M57.7969 37.6704H58.9489V38.8237H57.7969V37.6704Z" fill="white"/>
<path d="M59.9336 37.6704H61.0856V38.8237H59.9336V37.6704Z" fill="white"/>
<path d="M55.6602 39.7134H56.8122V40.8654H55.6602V39.7134Z" fill="white"/>
<path d="M57.7969 39.7134H58.9489V40.8654H57.7969V39.7134Z" fill="white"/>
<path d="M59.9336 39.7134H61.0856V40.8654H59.9336V39.7134Z" fill="white"/>
<path d="M55.6602 41.7549H56.8122V42.9082H55.6602V41.7549Z" fill="white"/>
<path d="M57.7969 41.7549H58.9489V42.9082H57.7969V41.7549Z" fill="white"/>
<path d="M59.9336 41.7549H61.0856V42.9082H59.9336V41.7549Z" fill="white"/>
<path d="M55.6602 43.7979H56.8122V44.9499H55.6602V43.7979Z" fill="white"/>
<path d="M57.7969 43.7979H58.9489V44.9499H57.7969V43.7979Z" fill="white"/>
<path d="M59.9336 43.7979H61.0856V44.9499H59.9336V43.7979Z" fill="white"/>
</g>
<path d="M18.5648 27.0447C18.5511 27.0111 18.5188 26.9874 18.4814 26.9874H17.7636C17.8693 26.9103 17.9415 26.7896 17.9415 26.6478C17.9415 26.4102 17.7487 26.2161 17.511 26.2161C17.2722 26.2161 17.0793 26.4089 17.0793 26.6478C17.0793 26.7896 17.1527 26.9091 17.2585 26.9874H16.5556C16.6626 26.9103 16.7347 26.7896 16.7347 26.6478C16.7347 26.4102 16.5419 26.2161 16.303 26.2161C16.0642 26.2161 15.8713 26.4089 15.8713 26.6478C15.8713 26.7896 15.9447 26.9091 16.0505 26.9874H13.306C13.306 26.9762 13.3073 26.965 13.3023 26.9551L11.5008 22.2387C11.4735 22.1678 11.3565 22.1678 11.3304 22.2387L9.5277 26.9551C9.52396 26.9663 9.52521 26.9775 9.52521 26.9874H7.20249C7.30948 26.9103 7.38164 26.7896 7.38164 26.6478C7.38164 26.4102 7.1888 26.2161 6.94994 26.2161C6.71231 26.2161 6.51948 26.4089 6.51948 26.6478C6.51948 26.7896 6.59288 26.9091 6.69739 26.9874H5.99696C6.10271 26.9103 6.17611 26.7896 6.17611 26.6478C6.17611 26.4102 5.98203 26.2161 5.74441 26.2161C5.50554 26.2161 5.31271 26.4089 5.31271 26.6478C5.31271 26.7896 5.38611 26.9091 5.49186 26.9874H4.41821C4.38213 26.9874 4.34854 27.0111 4.33485 27.0447C4.32117 27.0783 4.32863 27.1181 4.35476 27.1442L8.65434 31.4438C8.65185 31.4525 8.64688 31.4587 8.64688 31.4674C8.64688 31.4749 8.6531 31.4823 8.65683 31.4911L5.31395 48.4045C5.304 48.4543 5.33635 48.5028 5.38611 48.5115C5.39233 48.5127 5.39731 48.5127 5.40477 48.5127C5.44707 48.5127 5.48564 48.4829 5.49435 48.4393L5.63369 47.7352C5.63617 47.7327 5.63991 47.7339 5.64488 47.7314L11.3938 41.985C11.4025 41.9875 11.4075 41.9949 11.4162 41.9949C11.4249 41.9949 11.4312 41.9875 11.4399 41.985L17.1888 47.7314C17.1913 47.7339 17.195 47.7327 17.2 47.7352L17.3394 48.4393C17.3481 48.4829 17.3854 48.5127 17.4289 48.5127C17.4339 48.5127 17.4401 48.5127 17.4463 48.5115C17.4961 48.5015 17.5272 48.453 17.5197 48.4045L14.1806 31.511L18.5486 27.1442C18.571 27.1181 18.5785 27.0783 18.5648 27.0447ZM17.5098 26.4002C17.6466 26.4002 17.7574 26.5122 17.7574 26.649C17.7574 26.7859 17.6454 26.8966 17.5098 26.8966C17.3717 26.8966 17.2597 26.7846 17.2597 26.649C17.2597 26.5109 17.3717 26.4002 17.5098 26.4002ZM16.303 26.4002C16.4411 26.4002 16.5518 26.5122 16.5518 26.649C16.5518 26.7859 16.4386 26.8966 16.303 26.8966C16.1649 26.8966 16.053 26.7846 16.053 26.649C16.053 26.5109 16.1649 26.4002 16.303 26.4002ZM6.95118 26.4002C7.08927 26.4002 7.2 26.5122 7.2 26.649C7.2 26.7859 7.08803 26.8966 6.95118 26.8966C6.81433 26.8966 6.70236 26.7846 6.70236 26.649C6.70236 26.5109 6.81433 26.4002 6.95118 26.4002ZM5.74441 26.4002C5.88126 26.4002 5.99198 26.5122 5.99198 26.649C5.99198 26.7859 5.88002 26.8966 5.74441 26.8966C5.60632 26.8966 5.49435 26.7846 5.49435 26.649C5.49435 26.5109 5.60632 26.4002 5.74441 26.4002ZM11.4374 41.7536C11.4225 41.7486 11.4075 41.7486 11.3926 41.7536L7.62921 37.9902L11.3938 34.2268C11.4013 34.2293 11.4075 34.2355 11.415 34.2355C11.4225 34.2355 11.4299 34.2293 11.4361 34.2268L15.202 37.9902L11.4374 41.7536ZM11.4498 33.9494L8.90067 31.4326L11.4137 28.9208L13.9629 31.4687L11.4498 33.9494ZM11.415 28.662L9.92332 27.1716H12.9054L11.415 28.662ZM11.2856 28.7901L8.90565 31.1688L9.69067 27.1952L11.2856 28.7901ZM11.252 34.1111L7.60433 37.7563L8.80861 31.6665L11.252 34.1111ZM11.578 34.1111L14.0226 31.6665L15.2256 37.7563L11.578 34.1111ZM11.5444 28.7901L13.1393 27.1952L13.9243 31.1688L11.5444 28.7901ZM11.415 22.5274L13.1107 26.9626C13.1107 26.9638 13.1107 26.9663 13.1094 26.9675L13.0883 26.9899H9.74168L9.72053 26.9675C9.72053 26.9663 9.72053 26.9638 9.71929 26.9626L11.415 22.5274ZM9.51028 27.1716L8.70784 31.2385L4.63966 27.1716H9.51028ZM7.52844 38.1457L11.252 41.8693L5.69465 47.4229L7.52844 38.1457ZM11.578 41.8693L15.3028 38.1457L17.1366 47.4229L11.578 41.8693ZM14.1358 31.297L13.3209 27.1716H18.2612L14.1358 31.297Z" fill="#4E4E4E" fill-opacity="0.1"/>
<mask id="mask3_2038_6204" style="mask-type:luminance" maskUnits="userSpaceOnUse" x="35" y="3" width="33" height="35">
<path d="M35.6094 3.92529H67.8413V37.685H35.6094V3.92529Z" fill="white"/>
</mask>
<g mask="url(#mask3_2038_6204)">
<path d="M67.8266 34.6804C67.8116 35.5886 67.7693 36.498 67.6847 37.3776L35.8235 5.53008L35.8086 5.50271L37.2704 4.11182C37.2704 4.11182 37.2704 4.11182 37.2704 4.1255L67.8266 34.6804Z" fill="#4E4E4E" fill-opacity="0.05"/>
</g>
<path d="M67.566 38.3149C67.1691 41.5358 66.3182 44.6299 65.0691 47.4963L63.4792 47.7103L24.0116 8.36955C23.9406 8.31232 23.8697 8.25633 23.8125 8.18542L35.507 6.2832C35.5207 6.2832 35.5207 6.2832 35.5207 6.29689L67.566 38.3149Z" fill="#4E4E4E" fill-opacity="0.05"/>
<path d="M35.736 6.99375C35.736 8.01142 34.6039 8.61231 33.7653 8.06491C33.2988 8.83501 32.2998 9.07636 31.5421 8.63346C30.6974 10.2408 28.3672 10.1799 27.6071 8.52274C27.5362 8.53145 27.3657 8.52398 27.2127 8.48542C26.7325 9.18709 25.6713 9.1199 25.2831 8.35728C24.5503 8.86487 23.5352 8.34359 23.5352 7.44287C23.5352 6.82829 24.0303 6.33065 24.6449 6.32692H24.6474C24.6797 5.6464 25.2408 5.10273 25.9313 5.10273C25.9387 5.10273 25.9462 5.10273 25.9549 5.10522C25.5817 3.11467 28.6459 2.67675 28.8823 4.66481C29.7979 3.87232 31.2062 4.09377 31.832 5.11393C32.5648 4.27416 33.9258 4.70213 34.0627 5.78698C34.8377 5.50581 35.736 6.10174 35.736 6.99375Z" fill="white"/>
<path d="M37.4341 4.67069C37.4341 5.23799 36.9726 5.69831 36.4065 5.69831C35.8367 5.69831 35.3789 5.23675 35.3789 4.67069C35.3789 4.10462 35.8367 3.64307 36.4065 3.64307C36.832 3.64307 37.1965 3.90308 37.3533 4.27133C37.4043 4.39201 37.4341 4.52886 37.4341 4.67069Z" fill="white"/>
<path d="M61.3605 47.6254L59.931 49.0486L20.293 9.41055L21.7585 8.02588L61.3605 47.6254Z" fill="#4E4E4E" fill-opacity="0.05"/>
<path d="M21.9224 8.57987C21.9224 9.14717 21.4621 9.60749 20.8948 9.60749C20.3263 9.60749 19.8672 9.14593 19.8672 8.57987C19.8672 8.0138 20.3263 7.55225 20.8948 7.55225C21.3215 7.55225 21.6861 7.81226 21.8416 8.18051C21.8938 8.30243 21.9224 8.43804 21.9224 8.57987Z" fill="white"/>
<path d="M62.7794 27.0447C62.7644 27.0111 62.7321 26.9874 62.6948 26.9874H61.9769C62.0839 26.9103 62.1561 26.7896 62.1561 26.6478C62.1561 26.4102 61.9632 26.2161 61.7244 26.2161C61.4855 26.2161 61.2927 26.4089 61.2927 26.6478C61.2927 26.7896 61.3673 26.9091 61.4718 26.9874H60.7689C60.8759 26.9103 60.9481 26.7896 60.9481 26.6478C60.9481 26.4102 60.7552 26.2161 60.5164 26.2161C60.2787 26.2161 60.0847 26.4089 60.0847 26.6478C60.0847 26.7896 60.1593 26.9091 60.2638 26.9874H57.5206C57.5206 26.9762 57.5218 26.965 57.5181 26.9551L55.7154 22.2387C55.688 22.1678 55.5723 22.1678 55.545 22.2387L53.7423 26.9551C53.7385 26.9663 53.7398 26.9775 53.7398 26.9874H51.4183C51.5241 26.9103 51.5975 26.7896 51.5975 26.6478C51.5975 26.4102 51.4034 26.2161 51.1658 26.2161C50.9269 26.2161 50.7341 26.4089 50.7341 26.6478C50.7341 26.7896 50.8075 26.9091 50.9132 26.9874H50.2115C50.3185 26.9103 50.3907 26.7896 50.3907 26.6478C50.3907 26.4102 50.1979 26.2161 49.959 26.2161C49.7214 26.2161 49.5273 26.4089 49.5273 26.6478C49.5273 26.7896 49.6019 26.9091 49.7064 26.9874H48.634C48.5967 26.9874 48.5644 27.0111 48.5494 27.0447C48.5357 27.0783 48.5445 27.1181 48.5693 27.1442L52.8702 31.4438C52.8677 31.4525 52.8615 31.4587 52.8615 31.4674C52.8615 31.4749 52.8689 31.4823 52.8714 31.4911L49.5298 48.4045C49.5198 48.4543 49.5522 48.5028 49.6019 48.5115C49.6069 48.5127 49.6131 48.5127 49.6206 48.5127C49.6629 48.5127 49.7015 48.4829 49.7089 48.4393L49.8483 47.7352C49.8508 47.7327 49.8557 47.7339 49.8595 47.7314L55.6084 41.985C55.6171 41.9875 55.6233 41.9949 55.6321 41.9949C55.6408 41.9949 55.6457 41.9875 55.6544 41.985L61.4034 47.7314C61.4059 47.7339 61.4109 47.7327 61.4146 47.7352L61.5539 48.4393C61.5626 48.4829 61.6012 48.5127 61.6435 48.5127C61.6497 48.5127 61.6547 48.5127 61.6622 48.5115C61.7119 48.5015 61.743 48.453 61.7343 48.4045L58.3964 31.511L62.7632 27.1442C62.7856 27.1181 62.793 27.0783 62.7794 27.0447ZM61.7244 26.4002C61.8625 26.4002 61.9732 26.5122 61.9732 26.649C61.9732 26.7859 61.8612 26.8966 61.7244 26.8966C61.5863 26.8966 61.4743 26.7846 61.4743 26.649C61.4743 26.5109 61.5863 26.4002 61.7244 26.4002ZM60.5176 26.4002C60.6557 26.4002 60.7664 26.5122 60.7664 26.649C60.7664 26.7859 60.6545 26.8966 60.5176 26.8966C60.3808 26.8966 60.2688 26.7846 60.2688 26.649C60.2688 26.5109 60.3808 26.4002 60.5176 26.4002ZM51.1658 26.4002C51.3026 26.4002 51.4133 26.5122 51.4133 26.649C51.4133 26.7859 51.3014 26.8966 51.1658 26.8966C51.0277 26.8966 50.9157 26.7846 50.9157 26.649C50.9157 26.5109 51.0277 26.4002 51.1658 26.4002ZM49.959 26.4002C50.0971 26.4002 50.2078 26.5122 50.2078 26.649C50.2078 26.7859 50.0958 26.8966 49.959 26.8966C49.8221 26.8966 49.7089 26.7846 49.7089 26.649C49.7089 26.5109 49.8221 26.4002 49.959 26.4002ZM55.6532 41.7536C55.637 41.7486 55.6233 41.7486 55.6072 41.7536L51.8438 37.9902L55.6084 34.2268C55.6159 34.2293 55.6233 34.2355 55.6308 34.2355C55.637 34.2355 55.6445 34.2293 55.652 34.2268L59.4166 37.9902L55.6532 41.7536ZM55.6644 33.9494L53.1153 31.4326L55.6283 28.9208L58.1775 31.4687L55.6644 33.9494ZM55.6308 28.662L54.1391 27.1716H57.12L55.6308 28.662ZM55.5014 28.7901L53.1215 31.1688L53.9065 27.1952L55.5014 28.7901ZM55.4666 34.1111L51.8202 37.7563L53.0232 31.6665L55.4666 34.1111ZM55.7925 34.1111L58.2359 31.6665L59.439 37.7563L55.7925 34.1111ZM55.7577 28.7901L57.3526 27.1952L58.1377 31.1688L55.7577 28.7901ZM55.6308 22.5274L57.3265 26.9626C57.3265 26.9638 57.3265 26.9663 57.3253 26.9675L57.3041 26.9899H53.9575L53.9364 26.9675C53.9364 26.9663 53.9364 26.9638 53.9339 26.9626L55.6308 22.5274ZM53.7249 27.1716L52.9212 31.2385L48.8542 27.1716H53.7249ZM51.7418 38.1457L55.4653 41.8693L49.908 47.4229L51.7418 38.1457ZM55.7938 41.8693L59.5174 38.1457L61.3511 47.4229L55.7938 41.8693ZM58.3491 31.297L57.5355 27.1716H62.4746L58.3491 31.297Z" fill="#4E4E4E" fill-opacity="0.1"/>
<path d="M53.6527 49.7243C53.4661 50.4682 53.2459 51.2035 52.997 51.9213L19.1291 18.0496L19.1055 18.026L20.571 16.6426C20.571 16.6426 20.576 16.6426 20.576 16.6476L53.6527 49.7243Z" fill="#4E4E4E" fill-opacity="0.05"/>
<path d="M52.7256 52.6981C52.014 54.6525 51.127 56.5262 50.0844 58.2915C49.761 58.8439 49.4213 59.3851 49.0605 59.9176L46.7826 60.2373L7.157 20.7547C7.14207 20.7436 7.12963 20.7261 7.11719 20.7112L18.8117 18.814L18.8229 18.8252L52.7256 52.6981Z" fill="#4E4E4E" fill-opacity="0.05"/>
<path d="M19.0368 19.5206C19.0368 20.5383 17.9046 21.138 17.0661 20.5906C16.5996 21.3607 15.6006 21.602 14.8429 21.1591C13.9982 22.7677 11.668 22.7068 10.9079 21.0484C10.8369 21.0571 10.6665 21.0496 10.5135 21.0123C10.0333 21.7127 8.97205 21.6468 8.58389 20.8829C7.85112 21.3905 6.83594 20.8705 6.83594 19.9685C6.83594 19.3539 7.33109 18.8563 7.94567 18.8538H7.94816C7.97926 18.172 8.54159 17.6284 9.23206 17.6284C9.23952 17.6284 9.24699 17.6284 9.2557 17.6309C8.88247 15.6403 11.9467 15.2036 12.183 17.1917C12.5501 16.8745 13.0042 16.7115 13.4694 16.7115C14.1748 16.7115 14.7919 17.0822 15.134 17.6383C15.3692 17.3684 15.715 17.1954 16.1007 17.1954C16.7489 17.1954 17.2851 17.6844 17.3647 18.3114C17.4903 18.2653 17.6222 18.2442 17.7628 18.2442C18.4632 18.2454 19.0368 18.8152 19.0368 19.5206Z" fill="white"/>
<path d="M20.7337 17.1966C20.7337 17.7651 20.2734 18.2242 19.7061 18.2242C19.1375 18.2242 18.6797 17.7626 18.6797 17.1966C18.6797 16.6293 19.1375 16.1689 19.7061 16.1689C20.1328 16.1689 20.4973 16.429 20.6528 16.7985C20.7063 16.9191 20.7337 17.0547 20.7337 17.1966Z" fill="white"/>
<path d="M44.6588 60.1525L43.2318 61.5757L3.59375 21.9364L5.05929 20.5518L44.6588 60.1525Z" fill="#4E4E4E" fill-opacity="0.05"/>
<path d="M5.22321 21.1057C5.22321 21.6731 4.76165 22.1334 4.19559 22.1334C3.62704 22.1334 3.16797 21.6718 3.16797 21.1057C3.16797 20.5384 3.62704 20.0781 4.19559 20.0781C4.62231 20.0781 4.98683 20.3381 5.14234 20.7064C5.1946 20.8296 5.22321 20.9639 5.22321 21.1057Z" fill="white"/>
<path d="M43.1527 20.66C43.134 20.6152 43.0917 20.5878 43.0432 20.5878H42.1114C42.2482 20.4845 42.344 20.3303 42.344 20.1461C42.344 19.8376 42.0927 19.5863 41.7842 19.5863C41.4757 19.5863 41.2244 19.8376 41.2244 20.1461C41.2244 20.329 41.3189 20.4845 41.457 20.5878H40.5451C40.6832 20.4845 40.7777 20.3303 40.7777 20.1461C40.7777 19.8376 40.5277 19.5863 40.2191 19.5863C39.9094 19.5863 39.658 19.8376 39.658 20.1461C39.658 20.329 39.7538 20.4845 39.8919 20.5878H36.3301C36.3301 20.5729 36.3326 20.5579 36.3276 20.5443L33.9887 14.4246C33.9539 14.3337 33.8033 14.3337 33.7673 14.4246L31.4284 20.5443C31.4234 20.5592 31.4259 20.5729 31.4259 20.5878H28.4139C28.552 20.4845 28.6466 20.3303 28.6466 20.1461C28.6466 19.8376 28.3953 19.5863 28.088 19.5863C27.7782 19.5863 27.5269 19.8376 27.5269 20.1461C27.5269 20.329 27.6227 20.4845 27.7595 20.5878H26.8489C26.987 20.4845 27.0815 20.3303 27.0815 20.1461C27.0815 19.8376 26.8302 19.5863 26.5229 19.5863C26.2131 19.5863 25.9618 19.8376 25.9618 20.1461C25.9618 20.329 26.0564 20.4845 26.1945 20.5878H24.8023C24.7538 20.5878 24.7115 20.6152 24.6929 20.66C24.6742 20.7035 24.6841 20.7545 24.719 20.7893L30.2987 26.3691C30.2962 26.379 30.2875 26.3878 30.2875 26.3977C30.2875 26.4089 30.2975 26.4189 30.3 26.4288L25.9618 48.3721C25.9494 48.4368 25.9917 48.499 26.0551 48.5115C26.0638 48.5127 26.0713 48.514 26.0788 48.514C26.1335 48.514 26.1833 48.4741 26.1945 48.4194L26.3749 47.5062C26.3786 47.5037 26.3848 47.505 26.3886 47.5013L33.8481 40.0454C33.8581 40.0491 33.8668 40.0591 33.878 40.0591C33.8892 40.0591 33.8979 40.0491 33.9079 40.0454L41.3674 47.5013C41.3712 47.505 41.3774 47.5037 41.3811 47.5062L41.5615 48.4194C41.5727 48.4766 41.6225 48.514 41.6785 48.514C41.6847 48.514 41.6934 48.5127 41.7008 48.5115C41.7643 48.499 41.8054 48.4368 41.7942 48.3721L37.4635 26.4537L43.1291 20.7893C43.1614 20.7545 43.1714 20.7035 43.1527 20.66ZM41.7842 19.8227C41.9621 19.8227 42.1064 19.967 42.1064 20.1449C42.1064 20.3216 41.9621 20.4671 41.7842 20.4671C41.6063 20.4671 41.4607 20.3216 41.4607 20.1449C41.4607 19.967 41.6063 19.8227 41.7842 19.8227ZM40.2191 19.8227C40.397 19.8227 40.5414 19.967 40.5414 20.1449C40.5414 20.3216 40.397 20.4671 40.2191 20.4671C40.04 20.4671 39.8957 20.3216 39.8957 20.1449C39.8944 19.967 40.04 19.8227 40.2191 19.8227ZM28.0855 19.8227C28.2622 19.8227 28.4077 19.967 28.4077 20.1449C28.4077 20.3216 28.2622 20.4671 28.0855 20.4671C27.9063 20.4671 27.762 20.3216 27.762 20.1449C27.762 19.967 27.9076 19.8227 28.0855 19.8227ZM26.5192 19.8227C26.6971 19.8227 26.8414 19.967 26.8414 20.1449C26.8414 20.3216 26.6971 20.4671 26.5192 20.4671C26.3413 20.4671 26.1957 20.3216 26.1957 20.1449C26.1957 19.967 26.3413 19.8227 26.5192 19.8227ZM33.9066 39.7418C33.8855 39.7369 33.868 39.7369 33.8469 39.7418L28.9651 34.86L33.8494 29.9782C33.8593 29.9807 33.8668 29.9894 33.878 29.9894C33.8879 29.9894 33.8967 29.9807 33.9066 29.9782L38.7909 34.86L33.9066 39.7418ZM33.9228 29.6162L30.616 26.3504L33.8767 23.0909L37.1835 26.3952L33.9228 29.6162ZM33.8767 22.7575L31.9422 20.8229H35.8113L33.8767 22.7575ZM33.7088 22.9242L30.621 26.012L31.6399 20.8553L33.7088 22.9242ZM33.6653 29.8277L28.9327 34.5577L30.4928 26.6552L33.6653 29.8277ZM34.0882 29.8277L37.2607 26.6552L38.8208 34.5577L34.0882 29.8277ZM34.0447 22.9242L36.1136 20.8553L37.1325 26.012L34.0447 22.9242ZM33.8767 14.7965L36.0763 20.5517C36.0751 20.5542 36.0751 20.5554 36.0751 20.5592L36.0477 20.5853H31.707L31.6797 20.5592C31.6797 20.5554 31.6797 20.553 31.6784 20.5517L33.8767 14.7965ZM31.406 20.8229L30.3634 26.0991L25.086 20.8229H31.406ZM28.8332 35.0616L33.664 39.8924L26.4545 47.0982L28.8332 35.0616ZM34.0895 39.8924L38.9203 35.0616L41.299 47.0994L34.0895 39.8924ZM37.4062 26.175L36.3488 20.8229H42.7583L37.4062 26.175Z" fill="#4E4E4E" fill-opacity="0.1"/>
<path d="M15.5843 48.6149C15.5843 49.5231 14.8465 50.2559 13.9396 50.2559C13.1496 50.2559 12.4915 49.6985 12.331 48.9558C12.0088 49.3539 11.5223 49.6089 10.9687 49.6089C10.2795 49.6089 9.68231 49.2071 9.39866 48.6211C9.03414 49.1499 8.42951 49.4957 7.74402 49.4957C6.97766 49.4957 6.31082 49.0653 5.97989 48.4308C5.76342 48.5403 5.51585 48.6012 5.2521 48.6012C4.35386 48.6012 3.62109 47.8734 3.62109 46.9702C3.62109 46.1242 4.26429 45.4288 5.08788 45.3442C5.04434 45.2061 5.0207 45.0556 5.0207 44.9001C5.0207 44.0765 5.68753 43.4159 6.5049 43.4159C6.7363 43.4159 6.95899 43.4681 7.15183 43.5676C7.40314 43.3449 7.73406 43.2168 8.08863 43.2168C8.50043 43.2168 8.87365 43.391 9.13989 43.6709C9.28545 43.6286 9.4422 43.6099 9.60394 43.6099C10.3877 43.6099 11.0595 44.0964 11.3295 44.7819C11.5273 44.7072 11.7413 44.6637 11.9677 44.6637C12.9468 44.6637 13.7405 45.4587 13.7405 46.4365C13.7405 46.6356 13.7082 46.8247 13.651 46.9988C13.7455 46.9802 13.8401 46.9702 13.9396 46.9702C14.8465 46.969 15.5843 47.7067 15.5843 48.6149Z" fill="#36873C"/>
<path d="M64.2229 47.8816C64.2229 48.9068 63.3893 49.7341 62.3629 49.7341C61.4709 49.7341 60.7282 49.1046 60.5466 48.266C60.1833 48.7139 59.6334 49.0025 59.0089 49.0025C58.2276 49.0025 57.5545 48.5485 57.2348 47.8854C56.823 48.4838 56.1387 48.8732 55.3649 48.8732C54.499 48.8732 53.7476 48.3867 53.3731 47.6714C53.1268 47.7945 52.8494 47.863 52.5495 47.863C51.5344 47.863 50.707 47.0394 50.707 46.0205C50.707 45.0637 51.4336 44.2787 52.3642 44.1829C52.3156 44.0274 52.2883 43.8557 52.2883 43.6803C52.2883 42.751 53.0422 42.0033 53.9666 42.0033C54.2266 42.0033 54.4779 42.0605 54.6981 42.1725C54.9805 41.9224 55.355 41.7769 55.7556 41.7769C56.2196 41.7769 56.6426 41.9747 56.9424 42.2894C57.1079 42.2409 57.2846 42.2198 57.4662 42.2198C58.3532 42.2198 59.1109 42.7709 59.4157 43.5435C59.6396 43.4589 59.8797 43.4103 60.136 43.4103C61.242 43.4103 62.139 44.3073 62.139 45.4133C62.139 45.6373 62.1017 45.8513 62.037 46.0491C62.144 46.0279 62.251 46.0167 62.3629 46.0167C63.3893 46.0217 64.2229 46.8565 64.2229 47.8816Z" fill="#36873C"/>
<path d="M43.1207 39.0365H33.7266V29.8663C33.7266 29.3127 34.1769 28.8623 34.7293 28.8623H42.1167C42.6703 28.8623 43.1207 29.3127 43.1207 29.8663V39.0365ZM34.2441 38.5177H42.6007V29.865C42.6007 29.5976 42.3842 29.3798 42.1155 29.3798H34.7281C34.4618 29.3798 34.2429 29.5963 34.2429 29.865V38.5177H34.2441Z" fill="#7BA9B9"/>
<path d="M40.5547 33.626H51.4915V37.836H40.5547V33.626Z" fill="#E0E0E0"/>
<path d="M41.3359 18.3545H43.7619V32.1988H41.3359V18.3545Z" fill="#F2F3F4"/>
<path d="M44.0599 18.1492V18.4851C44.0599 18.5436 44.0126 18.5909 43.9541 18.5909H41.1475C41.089 18.5909 41.043 18.5436 41.043 18.4851V18.1492C41.043 18.0907 41.089 18.0435 41.1475 18.0435H43.9541C44.0126 18.0435 44.0599 18.0907 44.0599 18.1492Z" fill="#E2E2E2"/>
<path d="M41.3359 19.4185H43.7619V20.3864H41.3359V19.4185Z" fill="#F74F58"/>
<path d="M41.3359 21.4673H43.7619V22.4352H41.3359V21.4673Z" fill="#F74F58"/>
<path d="M41.3359 23.5146H43.7619V24.4826H41.3359V23.5146Z" fill="#F74F58"/>
<path d="M41.3359 25.564H43.7619V26.5319H41.3359V25.564Z" fill="#F74F58"/>
<path d="M41.3359 27.6133H43.7619V28.5812H41.3359V27.6133Z" fill="#F74F58"/>
<path d="M41.3359 29.6626H43.7619V30.6305H41.3359V29.6626Z" fill="#F74F58"/>
<path d="M44.3678 32.4573V33.4003H40.7227V32.4573C40.7227 32.1861 40.9441 31.9634 41.2166 31.9634H43.8739C44.1464 31.9634 44.3678 32.1861 44.3678 32.4573Z" fill="#E0E0E0"/>
<path d="M47.8672 18.3545H50.2944V32.1988H47.8672V18.3545Z" fill="#F2F3F4"/>
<path d="M50.5924 18.1492V18.4851C50.5924 18.5436 50.5451 18.5909 50.4866 18.5909H47.68C47.6215 18.5909 47.5742 18.5436 47.5742 18.4851V18.1492C47.5742 18.0907 47.6215 18.0435 47.68 18.0435H50.4866C50.5464 18.0435 50.5924 18.0907 50.5924 18.1492Z" fill="#E2E2E2"/>
<path d="M47.8672 19.4185H50.2944V20.3864H47.8672V19.4185Z" fill="#F74F58"/>
<path d="M47.8672 21.4673H50.2944V22.4352H47.8672V21.4673Z" fill="#F74F58"/>
<path d="M47.8672 23.5146H50.2944V24.4826H47.8672V23.5146Z" fill="#F74F58"/>
<path d="M47.8672 25.564H50.2944V26.5319H47.8672V25.564Z" fill="#F74F58"/>
<path d="M47.8672 27.6133H50.2944V28.5812H47.8672V27.6133Z" fill="#F74F58"/>
<path d="M47.8672 29.6626H50.2944V30.6305H47.8672V29.6626Z" fill="#F74F58"/>
<path d="M50.903 32.4573V33.4003H47.2578V32.4573C47.2578 32.1861 47.4793 31.9634 47.7517 31.9634H50.4091C50.6803 31.9634 50.903 32.1861 50.903 32.4573Z" fill="#E0E0E0"/>
<path d="M51.6655 33.0947V33.4654C51.6655 33.5475 51.5971 33.6147 51.5137 33.6147H40.5346C40.45 33.6147 40.3828 33.5475 40.3828 33.4654V33.0947C40.3828 33.0125 40.45 32.9429 40.5346 32.9429H51.5137C51.5971 32.9429 51.6655 33.0125 51.6655 33.0947Z" fill="#848381"/>
<path d="M41.082 34.0815H42.2876V35.2398H41.082V34.0815Z" fill="#D1D1D1"/>
<path d="M41.2305 34.2329H42.1312V35.0876H41.2305V34.2329Z" fill="#BFBFBF"/>
<path d="M42.1312 34.2329V34.3536H41.3524V35.0888H41.2305V34.2329H42.1312Z" fill="#AAAAAA"/>
<path d="M42.8164 34.0815H44.0207V35.2398H42.8164V34.0815Z" fill="#D1D1D1"/>
<path d="M42.9688 34.2329H43.8695V35.0876H42.9688V34.2329Z" fill="#BFBFBF"/>
<path d="M43.8707 34.2329V34.3536H43.0907V35.0888H42.9688V34.2329H43.8707Z" fill="#AAAAAA"/>
<path d="M44.5547 34.0815H45.759V35.2398H44.5547V34.0815Z" fill="#D1D1D1"/>
<path d="M44.7031 34.2329H45.6038V35.0876H44.7031V34.2329Z" fill="#BFBFBF"/>
<path d="M45.6038 34.2329V34.3536H44.8238V35.0888H44.7031V34.2329H45.6038Z" fill="#AAAAAA"/>
<path d="M46.2891 34.0815H47.4946V35.2398H46.2891V34.0815Z" fill="#D1D1D1"/>
<path d="M46.4414 34.2329H47.3421V35.0876H46.4414V34.2329Z" fill="#BFBFBF"/>
<path d="M47.3421 34.2329V34.3536H46.5633V35.0888H46.4414V34.2329H47.3421Z" fill="#AAAAAA"/>
<path d="M48.0273 34.0815H49.2329V35.2398H48.0273V34.0815Z" fill="#D1D1D1"/>
<path d="M48.1758 34.2329H49.0777V35.0876H48.1758V34.2329Z" fill="#BFBFBF"/>
<path d="M49.0777 34.2329V34.3536H48.2965V35.0888H48.1758V34.2329H49.0777Z" fill="#AAAAAA"/>
<path d="M49.7578 34.0815H50.9633V35.2398H49.7578V34.0815Z" fill="#D1D1D1"/>
<path d="M49.9141 34.2329H50.8148V35.0876H49.9141V34.2329Z" fill="#BFBFBF"/>
<path d="M50.8148 34.2329V34.3536H50.0335V35.0888H49.9141V34.2329H50.8148Z" fill="#AAAAAA"/>
<path d="M48.5844 17.2227C48.4463 17.1418 48.3381 17.0261 48.2634 16.8955C47.7148 17.5449 46.6847 17.362 46.3849 16.5857C45.5737 17.3459 44.2226 16.903 44.0398 15.7908C43.9751 15.7547 43.9129 15.7186 43.8556 15.6738C43.4501 16.6504 42.0355 16.5783 41.727 15.5631C41.4172 15.95 40.8375 16.0246 40.4369 15.6987C39.9467 16.0309 39.2612 15.9662 38.8531 15.4922C38.3941 15.69 37.828 15.6128 37.4199 15.2458C37.2035 16.4874 35.402 16.4651 35.2191 15.2172C35.1196 14.5417 35.6471 13.9395 36.3177 13.9395L36.3164 13.9184C36.1696 12.9269 37.2731 12.2339 38.1017 12.7763C38.3891 12.0224 39.3284 11.786 39.9367 12.2737C40.2092 12.1257 40.56 12.1157 40.8499 12.2799C41.248 11.1814 42.7297 11.0221 43.358 12.0012C43.8096 10.9587 45.3125 11.011 45.6857 12.0846C46.3376 11.6865 47.1587 12.2302 47.0716 12.9567C48.7611 11.6703 50.8288 14.0055 49.3732 15.5295C50.6956 15.9861 49.7501 17.9256 48.5844 17.2227Z" fill="white"/>
<path d="M22.4137 45.0419H13.0195V35.8704C13.0195 35.3168 13.4699 34.8677 14.0235 34.8677H21.4097C21.9633 34.8677 22.4137 35.3168 22.4137 35.8704V45.0419ZM13.5383 44.5218H21.8936V35.8692C21.8936 35.6029 21.6772 35.384 21.4084 35.384H14.0223C13.7548 35.384 13.5371 35.6017 13.5371 35.8692V44.5218H13.5383Z" fill="#4E4E4E"/>
<path d="M8.87109 41.1401H20.573V48.8523H8.87109V41.1401Z" fill="white"/>
<path d="M20.8301 41.4002V42.0695C20.8301 42.215 20.7156 42.3295 20.5763 42.3295H8.86939C8.72881 42.3295 8.60938 42.2163 8.60938 42.0695V41.4002C8.60938 41.2546 8.72881 41.1401 8.86939 41.1401H20.5763C20.7156 41.1401 20.8301 41.2533 20.8301 41.4002Z" fill="#D73149"/>
<path d="M9.72266 43.0757H11.7344V44.958H9.72266V43.0757Z" fill="#E8E8E8"/>
<path d="M9.84375 43.1978H11.6128V44.8337H9.84375V43.1978Z" fill="#CCCCCC"/>
<path d="M11.6128 43.1978V43.4404H10.0888V44.8337H9.84375V43.1978H11.6128Z" fill="#B2B1B1"/>
<path d="M12.3828 43.0757H14.3945V44.958H12.3828V43.0757Z" fill="#E8E8E8"/>
<path d="M12.5078 43.1978H14.2769V44.8337H12.5078V43.1978Z" fill="#CCCCCC"/>
<path d="M14.2757 43.1978V43.4404H12.7529V44.8337H12.5078V43.1978H14.2757Z" fill="#B2B1B1"/>
<path d="M15.0469 43.0757H17.0586V44.958H15.0469V43.0757Z" fill="#E8E8E8"/>
<path d="M15.1719 43.1978H16.941V44.8337H15.1719V43.1978Z" fill="#CCCCCC"/>
<path d="M16.9397 43.1978V43.4404H15.417V44.8337H15.1719V43.1978H16.9397Z" fill="#B2B1B1"/>
<path d="M17.7109 43.0757H19.7226V44.958H17.7109V43.0757Z" fill="#E8E8E8"/>
<path d="M17.8359 43.1978H19.605V44.8337H17.8359V43.1978Z" fill="#CCCCCC"/>
<path d="M19.6038 43.1978V43.4404H18.0798V44.8337H17.8359V43.1978H19.6038Z" fill="#B2B1B1"/>
<path d="M9.72266 45.6138H11.7344V47.4948H9.72266V45.6138Z" fill="#E8E8E8"/>
<path d="M9.84375 45.7373H11.6128V47.3733H9.84375V45.7373Z" fill="#CCCCCC"/>
<path d="M11.6128 45.7373V45.9799H10.0888V47.3733H9.84375V45.7373H11.6128Z" fill="#B2B1B1"/>
<path d="M12.3828 45.6138H14.3945V47.4948H12.3828V45.6138Z" fill="#E8E8E8"/>
<path d="M12.5078 45.7373H14.2769V47.3733H12.5078V45.7373Z" fill="#CCCCCC"/>
<path d="M14.2757 45.7373V45.9799H12.7529V47.3733H12.5078V45.7373H14.2757Z" fill="#B2B1B1"/>
<path d="M15.0469 45.6138H17.0586V47.4948H15.0469V45.6138Z" fill="#E8E8E8"/>
<path d="M15.1719 45.7373H16.941V47.3733H15.1719V45.7373Z" fill="#CCCCCC"/>
<path d="M16.9397 45.7373V45.9799H15.417V47.3733H15.1719V45.7373H16.9397Z" fill="#B2B1B1"/>
<path d="M17.7109 45.6138H19.7226V47.4948H17.7109V45.6138Z" fill="#E8E8E8"/>
<path d="M17.8359 45.7373H19.605V47.3733H17.8359V45.7373Z" fill="#CCCCCC"/>
<path d="M19.6038 45.7373V45.9799H18.0798V47.3733H17.8359V45.7373H19.6038Z" fill="#B2B1B1"/>
<path d="M21.1992 25.8467H34.9962V48.2503H21.1992V25.8467Z" fill="#7A5B56"/>
<path d="M22.2383 26.9766H24.5983V47.5315H22.2383V26.9766Z" fill="#6E4B45"/>
<path d="M22.3789 27.1216H24.4528V47.3854H22.3789V27.1216Z" fill="#543835"/>
<path d="M24.4528 27.1216V27.4065H22.665V47.3879H22.3789V27.1216H24.4528Z" fill="#472D2B"/>
<path d="M25.3555 26.9766H27.7155V47.5315H25.3555V26.9766Z" fill="#6E4B45"/>
<path d="M25.5 27.1216H27.5739V47.3854H25.5V27.1216Z" fill="#543835"/>
<path d="M27.5751 27.1216V27.4065H25.7886V47.3879H25.5V27.1216H27.5751Z" fill="#472D2B"/>
<path d="M28.4805 26.9766H30.8405V47.5315H28.4805V26.9766Z" fill="#6E4B45"/>
<path d="M28.625 27.1216H30.6989V47.3854H28.625V27.1216Z" fill="#543835"/>
<path d="M30.7001 27.1216V27.4065H28.9136V47.3879H28.625V27.1216H30.7001Z" fill="#472D2B"/>
<path d="M31.5977 26.9766H33.9577V47.5315H31.5977V26.9766Z" fill="#6E4B45"/>
<path d="M31.7461 27.1216H33.8188V47.3854H31.7461V27.1216Z" fill="#543835"/>
<path d="M33.8188 27.1216V27.4065H32.0322V47.3879H31.7461V27.1216H33.8188Z" fill="#472D2B"/>
<path d="M21.1992 36.7949H34.9962V37.3H21.1992V36.7949Z" fill="#7A5B56"/>
<path d="M21.1992 31.7261H34.9962V32.2312H21.1992V31.7261Z" fill="#7A5B56"/>
<path d="M21.1992 41.9492H34.9962V42.4543H21.1992V41.9492Z" fill="#7A5B56"/>
<path d="M27.5039 35.9302H56.7961V48.2492H27.5039V35.9302Z" fill="#FFCC44"/>
<path d="M27.5039 35.5874H56.7961V36.4409H27.5039V35.5874Z" fill="#F74F58"/>
<path d="M37.75 37.4229H39.8164V39.4856H37.75V37.4229Z" fill="white"/>
<path d="M37.9453 37.6182H39.6223V39.2915H37.9453V37.6182Z" fill="#4E4E4E"/>
<path d="M34.7109 37.4229H36.7774V39.4856H34.7109V37.4229Z" fill="white"/>
<path d="M34.9102 37.6182H36.5872V39.2915H34.9102V37.6182Z" fill="#4E4E4E"/>
<path d="M31.6797 37.4229H33.7461V39.4856H31.6797V37.4229Z" fill="white"/>
<path d="M31.875 37.6182H33.552V39.2915H31.875V37.6182Z" fill="#4E4E4E"/>
<path d="M28.6445 37.4229H30.711V39.4856H28.6445V37.4229Z" fill="white"/>
<path d="M28.8438 37.6182H30.5208V39.2915H28.8438V37.6182Z" fill="#4E4E4E"/>
<path d="M37.75 40.8965H39.8164V47.0995H37.75V40.8965Z" fill="white"/>
<path d="M37.9453 41.0903H39.6223V46.9052H37.9453V41.0903Z" fill="#4E4E4E"/>
<path d="M34.7109 40.8965H36.7774V47.0995H34.7109V40.8965Z" fill="white"/>
<path d="M34.9102 41.0903H36.5872V46.9052H34.9102V41.0903Z" fill="#4E4E4E"/>
<path d="M31.6797 40.8965H33.7461V47.0995H31.6797V40.8965Z" fill="white"/>
<path d="M31.875 41.0903H33.552V46.9052H31.875V41.0903Z" fill="#4E4E4E"/>
<path d="M28.6445 40.8965H30.711V47.0995H28.6445V40.8965Z" fill="white"/>
<path d="M28.8438 41.0903H30.5208V46.9052H28.8438V41.0903Z" fill="#4E4E4E"/>
<path d="M46.8242 37.4229H48.8907V39.4856H46.8242V37.4229Z" fill="white"/>
<path d="M47.0156 37.6182H48.6939V39.2915H47.0156V37.6182Z" fill="#4E4E4E"/>
<path d="M43.7852 37.4229H45.8516V39.4856H43.7852V37.4229Z" fill="white"/>
<path d="M43.9844 37.6182H45.6627V39.2915H43.9844V37.6182Z" fill="#4E4E4E"/>
<path d="M40.75 37.4229H42.8164V39.4856H40.75V37.4229Z" fill="white"/>
<path d="M40.9492 37.6182H42.6275V39.2915H40.9492V37.6182Z" fill="#4E4E4E"/>
<path d="M46.8242 40.8965H48.8907V47.0995H46.8242V40.8965Z" fill="white"/>
<path d="M47.0156 41.0903H48.6939V46.9052H47.0156V41.0903Z" fill="#4E4E4E"/>
<path d="M43.7852 40.8965H45.8516V47.0995H43.7852V40.8965Z" fill="white"/>
<path d="M43.9844 41.0903H45.6627V46.9052H43.9844V41.0903Z" fill="#4E4E4E"/>
<path d="M40.75 40.8965H42.8164V47.0995H40.75V40.8965Z" fill="white"/>
<path d="M40.9492 41.0903H42.6275V46.9052H40.9492V41.0903Z" fill="#4E4E4E"/>
<path d="M52.8594 37.4229H54.9258V39.4856H52.8594V37.4229Z" fill="white"/>
<path d="M53.0547 37.6182H54.7317V39.2915H53.0547V37.6182Z" fill="#4E4E4E"/>
<path d="M49.8242 37.4229H51.8907V39.4856H49.8242V37.4229Z" fill="white"/>
<path d="M50.0195 37.6182H51.6966V39.2915H50.0195V37.6182Z" fill="#4E4E4E"/>
<path d="M52.8594 40.8965H54.9258V47.0995H52.8594V40.8965Z" fill="white"/>
<path d="M53.0547 41.0903H54.7317V46.9052H53.0547V41.0903Z" fill="#4E4E4E"/>
<path d="M49.8242 40.8965H51.8907V47.0995H49.8242V40.8965Z" fill="white"/>
<path d="M50.0195 41.0903H51.6966V46.9052H50.0195V41.0903Z" fill="#4E4E4E"/>
<path d="M64.7305 48.2515C63.9866 49.8738 63.4491 50.7459 62.9988 51.5296H4.83991C4.32237 50.6215 3.86703 49.9049 3.10938 48.2515H64.7305Z" fill="#B9C3D2"/>
<path d="M57.8345 58.1294C57.3095 58.6407 56.7845 59.1371 56.2308 59.6198H11.6114C11.0578 59.1371 10.5328 58.6407 10.0078 58.1294H57.8345Z" fill="#FBDB93"/>
</svg>
